<svg xmlns="http://www.w3.org/2000/svg" width="14.3" height="18.382" viewBox="0 0 14.3 18.382">
  <g id="delete" transform="translate(0)">
    <path id="Path_35" data-name="Path 35" d="M126.574,1.11h3.072v.517h1.109V1.037A1.038,1.038,0,0,0,129.719,0H126.5a1.038,1.038,0,0,0-1.037,1.037v.589h1.11Zm0,0" transform="translate(-120.96 0)" fill="#fc573b"/>
    <path id="Path_36" data-name="Path 36" d="M51.394,167.75H40.979a.489.489,0,0,0-.487.528l.871,10.767a1.156,1.156,0,0,0,1.152,1.064h7.343a1.156,1.156,0,0,0,1.152-1.064l.871-10.767a.488.488,0,0,0-.487-.528ZM43.5,178.961h-.035a.555.555,0,0,1-.553-.521l-.546-8.839a.555.555,0,0,1,1.107-.068l.546,8.839A.555.555,0,0,1,43.5,178.961Zm3.247-.554a.555.555,0,0,1-1.11,0v-8.839a.555.555,0,0,1,1.11,0Zm3.258-8.807-.521,8.839a.555.555,0,0,1-.553.522H48.9a.555.555,0,0,1-.521-.586l.521-8.839a.555.555,0,0,1,1.108.065Zm0,0" transform="translate(-39.036 -161.728)" fill="#fc573b"/>
    <path id="Path_37" data-name="Path 37" d="M14.276,77.786l-.364-1.092a.705.705,0,0,0-.669-.482H1.058a.705.705,0,0,0-.669.482L.024,77.786a.458.458,0,0,0,.434.6H13.842a.452.452,0,0,0,.242-.07.457.457,0,0,0,.192-.532Zm0,0" transform="translate(0 -73.475)" fill="#fc573b"/>
  </g>
</svg>
