<svg id="distance" xmlns="http://www.w3.org/2000/svg" width="43.03" height="43.03" viewBox="0 0 43.03 43.03">
  <g id="Group_45" data-name="Group 45">
    <g id="Group_44" data-name="Group 44">
      <path id="Path_16" data-name="Path 16" d="M348.506,0a7.18,7.18,0,0,0-7.172,7.172c0,3.43,5.082,10.372,6.273,11.953,0,.51,0,1.012-.012,1.472a.9.9,0,0,0,.873.92h.025a.9.9,0,0,0,.9-.873c.012-.472.012-.987.012-1.512,1.183-1.569,6.278-8.525,6.278-11.959A7.18,7.18,0,0,0,348.506,0Zm0,8.965A1.793,1.793,0,1,1,350.3,7.172,1.8,1.8,0,0,1,348.506,8.965Z" transform="translate(-312.647)" fill="#fff"/>
      <path id="Path_17" data-name="Path 17" d="M295.107,306.141a7.283,7.283,0,0,0-2.792,3.32.9.9,0,1,0,1.616.776,5.356,5.356,0,0,1,2.062-2.537.9.9,0,1,0-.886-1.558Z" transform="translate(-267.667 -280.304)" fill="#fff"/>
      <path id="Path_18" data-name="Path 18" d="M188.652,460.162a9.815,9.815,0,0,1-3.122,1.639.9.9,0,0,0,.555,1.705,11.734,11.734,0,0,0,3.68-1.938.9.9,0,1,0-1.114-1.406Z" transform="translate(-169.37 -421.311)" fill="#fff"/>
      <path id="Path_19" data-name="Path 19" d="M258.256,383.768a.894.894,0,0,0-1.16.512,20.957,20.957,0,0,1-1.582,3.358.9.9,0,0,0,1.53.935,22.7,22.7,0,0,0,1.724-3.645A.9.9,0,0,0,258.256,383.768Z" transform="translate(-233.92 -351.459)" fill="#fff"/>
      <path id="Path_20" data-name="Path 20" d="M370.533,279.35a.9.9,0,0,0-1.245.24c-.295.436-.9,1.036-2.726,1.2a.9.9,0,0,0,.08,1.789c.027,0,.054,0,.081,0a5.083,5.083,0,0,0,4.05-1.98A.9.9,0,0,0,370.533,279.35Z" transform="translate(-335.008 -255.732)" fill="#fff"/>
      <path id="Path_21" data-name="Path 21" d="M12.882,197.572c2.829-3.016,8.633-9.956,8.633-16.148a10.644,10.644,0,0,0-10.757-10.757A10.644,10.644,0,0,0,0,181.424c0,7.952,9.587,17.157,10.122,17.665l0,0,.017.016a.841.841,0,0,0,.124.079.876.876,0,0,0,.154.1.894.894,0,0,0,.337.068q.98,0,1.862-.067a.9.9,0,0,0,.826-.961A.88.88,0,0,0,12.882,197.572ZM10.757,186.8a5.379,5.379,0,1,1,5.379-5.379A5.385,5.385,0,0,1,10.757,186.8Z" transform="translate(0 -156.324)" fill="#fff"/>
    </g>
  </g>
</svg>
