<svg xmlns="http://www.w3.org/2000/svg" width="27.666" height="30.196" viewBox="0 0 27.666 30.196">
  <g id="filter" transform="translate(108 -64.267) rotate(90)">
    <path id="Path_3" data-name="Path 3" d="M93.282,82.864H75.292a3.71,3.71,0,0,0-7.035,0H65.448a1.181,1.181,0,1,0,0,2.362h2.808a3.71,3.71,0,0,0,7.035,0h17.99a1.181,1.181,0,1,0,0-2.362Zm-21.508,2.53a1.349,1.349,0,1,1,1.349-1.349A1.351,1.351,0,0,1,71.774,85.395Z" transform="translate(0)" fill="#b1afad"/>
    <path id="Path_4" data-name="Path 4" d="M93.282,211.4H90.474a3.71,3.71,0,0,0-7.035,0H65.448a1.181,1.181,0,1,0,0,2.362h17.99a3.71,3.71,0,0,0,7.035,0h2.808a1.181,1.181,0,1,0,0-2.362Zm-6.326,2.53a1.349,1.349,0,1,1,1.349-1.349A1.351,1.351,0,0,1,86.956,213.928Z" transform="translate(0 -118.412)" fill="#b1afad"/>
    <path id="Path_5" data-name="Path 5" d="M93.282,339.93H80.353a3.71,3.71,0,0,0-7.035,0H65.448a1.181,1.181,0,1,0,0,2.362h7.869a3.71,3.71,0,0,0,7.035,0h12.93a1.181,1.181,0,1,0,0-2.362Zm-16.447,2.53a1.349,1.349,0,1,1,1.349-1.349A1.351,1.351,0,0,1,76.835,342.461Z" transform="translate(0 -236.823)" fill="#b1afad"/>
  </g>
</svg>
