<svg xmlns="http://www.w3.org/2000/svg" width="31.209" height="19.506" viewBox="0 0 31.209 19.506">
  <path id="incognito" d="M30.005.229A1.942,1.942,0,0,0,27.88.652c-.614.614-1.379,1.379-4.473,1.379-2.786,0-4.887,1.657-6.421,2.867-.432.341-1.061.836-1.306.991a10.39,10.39,0,0,1-.933-.851c-1.219-1.2-3.061-3.007-5.969-3.007-3.212,0-4.935-.867-5.448-1.379A1.95,1.95,0,0,0,0,2.031C0,7.495.866,14.95,8.353,16.615a11.3,11.3,0,0,1,4.891,2.026,3.825,3.825,0,0,0,2.361.945,3.825,3.825,0,0,0,2.361-.946,11.313,11.313,0,0,1,4.89-2.026c7.488-1.663,8.354-9.119,8.354-14.583a1.951,1.951,0,0,0-1.2-1.8ZM5.852,8.005s4.446-.691,6.5,1.188a4.13,4.13,0,0,1,1.3,3.564c-7.8,0-7.8-4.753-7.8-4.753Zm11.7,4.753a4.13,4.13,0,0,1,1.3-3.564c2.056-1.879,6.5-1.188,6.5-1.188s0,4.753-7.8,4.753Z" transform="translate(0 -0.079)" fill="#8a929d"/>
</svg>
