<svg xmlns="http://www.w3.org/2000/svg" width="29.268" height="29.268" viewBox="0 0 29.268 29.268">
  <g id="measured" transform="translate(0 0.001)">
    <path id="Path_24" data-name="Path 24" d="M29.017,404.537l-2.287-2.287a.857.857,0,1,0-1.213,1.213l.823.823H2.928l.823-.823a.857.857,0,1,0-1.213-1.213L.252,404.537a.857.857,0,0,0,0,1.213l2.287,2.287a.857.857,0,1,0,1.213-1.213L2.928,406H26.341l-.823.823a.857.857,0,1,0,1.213,1.213l2.287-2.287a.857.857,0,0,0,0-1.213Z" transform="translate(0 -379.02)" fill="#8a929d"/>
    <path id="Path_25" data-name="Path 25" d="M23.853,11.573,33.911,4.029a.857.857,0,0,1,1.029,0L45,11.573a1.788,1.788,0,0,0,2.146-2.861L36.4.651a3.3,3.3,0,0,0-3.94,0L21.707,8.713a1.788,1.788,0,1,0,2.146,2.861Z" transform="translate(-19.792 0)" fill="#8a929d"/>
    <path id="Path_26" data-name="Path 26" d="M181,255h3.43v3.43H181Z" transform="translate(-170.653 -240.424)" fill="#8a929d"/>
    <path id="Path_27" data-name="Path 27" d="M271,255h3.43v3.43H271Z" transform="translate(-255.508 -240.424)" fill="#8a929d"/>
    <path id="Path_28" data-name="Path 28" d="M81,108.748v9.289a.857.857,0,0,0,.857.857H100.15a.857.857,0,0,0,.857-.857v-9.289l-10-7.5Zm16.006.429v5.145a.857.857,0,0,1-.857.857H85.859a.857.857,0,0,1-.857-.857v-5.145a.857.857,0,0,1,.857-.857H96.148A.857.857,0,0,1,97.006,109.177Z" transform="translate(-76.369 -95.458)" fill="#8a929d"/>
    <path id="Path_29" data-name="Path 29" d="M359.43.857A.857.857,0,0,0,358.572,0h-1.715A.857.857,0,0,0,356,.857v.46l3.43,2.572Z" transform="translate(-335.649 0)" fill="#8a929d"/>
  </g>
</svg>
