<svg xmlns="http://www.w3.org/2000/svg" width="31.209" height="31.209" viewBox="0 0 31.209 31.209">
  <path id="virus" d="M29.259,13.654a1.951,1.951,0,0,0-1.688.975H25.8a10.19,10.19,0,0,0-2.3-5.54l1.256-1.256a1.951,1.951,0,1,0-1.379-1.379L22.12,7.71a10.19,10.19,0,0,0-5.54-2.3V3.639a1.951,1.951,0,1,0-1.951,0V5.41a10.19,10.19,0,0,0-5.54,2.3L7.833,6.454A1.951,1.951,0,1,0,6.454,7.833L7.71,9.089a10.19,10.19,0,0,0-2.3,5.54H3.639a1.951,1.951,0,1,0,0,1.951H5.41a10.19,10.19,0,0,0,2.3,5.54L6.454,23.376a1.951,1.951,0,1,0,1.379,1.379L9.089,23.5a10.19,10.19,0,0,0,5.54,2.3V27.57a1.951,1.951,0,1,0,1.951,0V25.8a10.19,10.19,0,0,0,5.54-2.3l1.256,1.256a1.951,1.951,0,1,0,1.379-1.379L23.5,22.12a10.19,10.19,0,0,0,2.3-5.54H27.57a1.95,1.95,0,1,0,1.688-2.926ZM12.374,15.117a1.707,1.707,0,1,1,1.707-1.707A1.709,1.709,0,0,1,12.374,15.117Zm4.206,5.852a1.951,1.951,0,1,1,1.951-1.951A1.952,1.952,0,0,1,16.58,20.969Zm3.414-6.827a1.463,1.463,0,1,1,1.463-1.463A1.465,1.465,0,0,1,19.993,14.142Z" fill="#8a929d"/>
</svg>
