<svg xmlns="http://www.w3.org/2000/svg" width="41.535" height="33.054" viewBox="0 0 41.535 33.054">
  <g id="home_2_" data-name="home (2)" transform="translate(0 0)">
    <g id="Group_46" data-name="Group 46" transform="translate(0 0)">
      <path id="Path_22" data-name="Path 22" d="M80.537,120.939,65.724,133.151a.351.351,0,0,1-.013.077.352.352,0,0,0-.013.077v12.366a1.673,1.673,0,0,0,1.649,1.649h9.892v-9.893h6.6v9.893h9.892a1.675,1.675,0,0,0,1.649-1.65V133.3a.363.363,0,0,0-.026-.154Z" transform="translate(-59.77 -114.267)" fill="#fff"/>
      <path id="Path_23" data-name="Path 23" d="M41.248,63.1l-5.642-4.689V47.9a.794.794,0,0,0-.824-.824H29.835a.793.793,0,0,0-.824.824V52.92l-6.286-5.256a3.2,3.2,0,0,0-3.915,0L.286,63.1A.748.748,0,0,0,0,63.65a.834.834,0,0,0,.18.606l1.6,1.906a.879.879,0,0,0,.541.284.957.957,0,0,0,.619-.18L20.767,51.4,38.595,66.265a.794.794,0,0,0,.541.18h.077a.88.88,0,0,0,.541-.283l1.6-1.906a.834.834,0,0,0,.18-.606A.751.751,0,0,0,41.248,63.1Z" transform="translate(0.001 -46.994)" fill="#fff"/>
    </g>
  </g>
</svg>
