<svg xmlns="http://www.w3.org/2000/svg" width="30.556" height="30.517" viewBox="0 0 30.556 30.517">
  <g id="rating" transform="translate(0 -0.33)">
    <path id="Path_31" data-name="Path 31" d="M9.893,13.563H9.881a3.418,3.418,0,0,0-2.844,1.58l-1.489-1a5.184,5.184,0,0,1,4.327-2.375h.018a5.078,5.078,0,0,1,2.672.754A11.652,11.652,0,0,1,19.749,9.3,9.9,9.9,0,1,0,9,20.082a11.626,11.626,0,0,1,2.34-6.183,3.29,3.29,0,0,0-1.45-.336Zm2.4-6.817h2.033V8.779H12.289Zm-6.84,0H7.482V8.779H5.449Z" fill="#8a929d"/>
    <path id="Path_32" data-name="Path 32" d="M190.068,179.841c-.306,0-.608.015-.906.042a9.863,9.863,0,0,0-5.834,2.615,9.977,9.977,0,0,0-1.216,1.36,9.841,9.841,0,0,0-1.9,5.01c-.025.286-.039.576-.039.869a9.9,9.9,0,1,0,9.9-9.9Zm-4.413,6.366h2.033v2.033h-2.033Zm4.433,8.773h-.018a5.192,5.192,0,0,1-4.334-2.379l1.489-1a3.427,3.427,0,0,0,2.851,1.584h.012a3.462,3.462,0,0,0,2.873-1.589l1.482,1.007a5.228,5.228,0,0,1-4.355,2.374Zm4.44-6.74h-2.033v-2.033h2.033Z" transform="translate(-169.408 -168.787)" fill="#8a929d"/>
  </g>
</svg>
