<svg id="Group_99" data-name="Group 99" xmlns="http://www.w3.org/2000/svg" width="51.2" height="51.2" viewBox="0 0 51.2 51.2">
  <circle id="Ellipse_3" data-name="Ellipse 3" cx="25.6" cy="25.6" r="25.6" fill="#faaf31"/>
  <path id="Path_14" data-name="Path 14" d="M102.845,210.785a3.024,3.024,0,0,1,0,4.2l-2.342,2.342a3.024,3.024,0,0,1-4.2,0L86.048,206.989a3.024,3.024,0,0,1,0-4.2l2.342-2.342a3.024,3.024,0,0,1,4.2,0Z" transform="translate(-76.599 -179.451)" fill="#fff"/>
  <path id="Path_15" data-name="Path 15" d="M183.014,126.048a3.024,3.024,0,0,1,4.2,0l2.342,2.342a3.024,3.024,0,0,1,0,4.2l-17.767,17.686a3.024,3.024,0,0,1-4.2,0l-2.342-2.342a3.024,3.024,0,0,1,0-4.2Z" transform="translate(-147.804 -112.562)" fill="#fff"/>
</svg>
